<svg version="1.1" id="Layer_1" xmlns="http://www.w3.org/2000/svg" xmlns:xlink="http://www.w3.org/1999/xlink" x="0px" y="0px"
	 width="100%" viewBox="0 0 216 203" enable-background="new 0 0 216 203" xml:space="preserve">
<path fill="#262724" opacity="1.000000" stroke="none" 
	d="
M41.729065,1.297725 
	C68.020897,1.000000 94.041786,1.000000 120.531342,1.000000 
	C126.031227,7.280293 127.389038,15.101449 129.904877,22.425716 
	C130.410172,23.896765 129.767319,25.413036 128.392441,26.365206 
	C126.944489,27.367987 125.687241,26.740713 124.251091,26.029827 
	C121.381783,24.609549 118.800583,21.896193 114.697418,23.524740 
	C111.572060,23.349831 109.346809,21.774380 106.931053,20.694534 
	C105.414703,20.016729 104.013809,18.997776 102.339706,18.785234 
	C100.072670,18.497414 97.150764,17.664248 96.160957,20.351038 
	C95.289833,22.715693 98.177475,23.502979 99.756210,24.436714 
	C108.773438,29.769897 117.553780,35.520020 127.325027,40.331219 
	C133.006180,42.351040 137.241592,47.786583 137.377930,53.350739 
	C137.563019,60.903721 138.202591,68.443649 138.090088,76.001328 
	C138.048538,78.792313 138.449478,81.388733 140.208969,84.093971 
	C140.950745,90.167160 135.284744,96.635208 129.224945,97.205826 
	C128.065002,97.315048 126.906242,97.159134 125.747414,97.166748 
	C124.042259,97.177956 122.855812,97.912109 122.653923,99.716217 
	C122.460686,101.442993 123.321861,102.623764 124.911385,103.136719 
	C127.334862,103.918823 129.887054,104.235855 132.171951,102.935257 
	C137.194992,100.076080 142.571930,97.751640 146.995377,93.381744 
	C147.800735,92.246956 148.258377,91.308777 148.484589,89.897026 
	C148.730469,87.408989 148.507355,85.220299 149.599686,82.818138 
	C155.310776,79.476990 156.914948,80.102623 158.568390,85.880463 
	C158.740677,86.482491 158.532730,87.201714 159.098892,87.681038 
	C164.777298,92.488464 162.692245,98.193085 160.905029,104.251022 
	C160.290604,107.767044 157.479279,108.670036 155.283401,109.961937 
	C148.394104,114.015129 141.422318,117.930687 134.484787,121.903725 
	C127.121117,126.120811 117.266151,123.433929 112.971390,116.055763 
	C111.934036,114.273651 110.819473,112.932114 108.661659,113.801559 
	C106.381866,114.720154 106.851967,116.680458 107.283829,118.512741 
	C109.052818,126.018044 126.073395,133.904114 132.832687,130.212906 
	C137.946243,127.420425 142.966080,124.449532 147.970566,121.456375 
	C150.194061,120.126511 152.438843,118.369102 155.727554,119.461433 
	C159.197830,121.332870 161.502441,123.499382 160.616760,127.889450 
	C160.561722,131.284775 158.280579,132.492767 156.097153,133.620316 
	C152.578262,135.437515 149.207977,137.505280 145.773712,139.464188 
	C144.461044,140.212936 143.114960,141.160004 143.602097,142.930573 
	C144.125839,144.834213 145.834106,145.224792 147.545303,145.262772 
	C150.491547,145.328201 152.928467,143.836960 155.337341,142.420456 
	C157.620010,141.078186 159.827744,139.632187 162.952148,139.564240 
	C168.433075,140.811203 171.333908,144.139648 173.530472,148.852768 
	C175.962418,154.070892 179.190796,158.949905 182.296341,163.813339 
	C189.515289,175.118576 196.526276,186.564285 204.215134,197.568253 
	C205.402176,199.267075 207.007034,201.054474 205.246185,203.711761 
	C180.979111,204.000000 156.958206,204.000000 132.468658,204.000000 
	C127.816193,201.443878 126.399071,196.780014 123.979965,192.977966 
	C120.102646,186.884079 116.401299,180.654343 112.694519,174.042755 
	C112.320747,170.581879 110.915085,168.205322 108.090355,166.711655 
	C106.775780,166.016525 105.662590,165.095520 105.341034,163.139679 
	C105.533325,160.156754 104.221390,158.048981 102.960594,155.962708 
	C101.887215,154.186539 101.145729,152.471878 102.796761,150.274475 
	C105.217613,148.509537 107.211067,149.360397 109.106163,150.515854 
	C111.376038,151.899857 113.626762,153.347198 115.967369,154.573654 
	C119.336136,156.338852 121.114250,158.710312 121.690536,162.626526 
	C122.343796,167.065857 124.731979,170.819077 129.509277,172.019714 
	C133.348129,172.984528 137.067947,172.817078 140.170914,169.719238 
	C143.412338,166.483185 144.638123,160.252747 142.620651,156.371490 
	C140.172760,151.662170 134.855301,149.145462 129.483124,151.079941 
	C125.975533,152.342957 123.492996,151.444870 120.661522,149.772141 
	C112.508926,144.955917 104.295059,140.243256 96.205986,135.319061 
	C88.543533,130.654587 86.035484,121.918633 90.153931,113.996468 
	C90.886597,112.587112 91.521706,111.259171 90.431969,109.844292 
	C89.253296,108.313934 87.654869,108.217331 85.927559,108.788864 
	C84.677002,109.202644 83.465637,109.850655 81.706070,109.428284 
	C77.511528,106.489868 76.346184,102.135399 74.748611,97.609535 
	C74.934380,93.851906 77.141113,92.856918 80.117447,93.051300 
	C82.284325,93.192818 84.317772,93.009361 84.575005,90.423546 
	C84.862862,87.529785 82.501358,87.108192 80.353058,86.645729 
	C77.481598,86.027580 74.922340,87.774521 71.776550,87.564819 
	C70.707314,87.148796 70.071709,86.720886 69.167412,85.977432 
	C67.330399,83.754143 66.486046,81.482910 65.852249,78.716858 
	C65.926804,77.810638 65.982048,77.300476 66.017807,76.420120 
	C67.307983,69.651146 77.113625,64.842270 84.514801,67.227882 
	C88.584274,68.539589 92.882118,69.755272 94.526169,74.601875 
	C95.048866,76.142784 96.485069,76.915314 98.185440,76.379303 
	C100.152275,75.759277 100.497856,74.154381 100.243324,72.358452 
	C99.948502,70.278320 98.828201,68.661438 97.238197,67.336296 
	C95.949677,66.262405 94.322655,65.679108 93.051926,64.631714 
	C84.803963,57.833340 76.478874,56.793106 67.863838,63.970329 
	C66.566772,65.050919 64.971176,65.625305 62.856926,65.022339 
	C59.982857,62.894344 59.352131,59.811348 57.916634,56.779095 
	C57.358192,53.279110 59.649052,52.123863 61.820179,50.838295 
	C63.089703,50.086578 64.664940,49.335533 64.262650,47.508411 
	C63.831219,45.548897 62.012974,45.264256 60.361828,45.014225 
	C58.295414,44.701302 55.997993,45.670013 53.966286,43.581097 
	C48.507092,31.632971 45.038891,19.361624 41.101482,7.258335 
	C40.506401,5.429113 39.907696,3.388304 41.729065,1.297725 
z"/>
<path fill="#2B2B2A" opacity="1.000000" stroke="none" 
	d="
M143.740173,1.299432 
	C166.952896,1.000000 189.907227,1.129733 212.857269,0.874056 
	C216.744858,0.830746 217.083817,2.018535 217.075577,5.341444 
	C216.963226,50.581638 217.000000,95.822205 217.000000,141.531342 
	C215.012665,143.802048 213.131363,143.049850 211.907074,141.274033 
	C210.224365,138.833298 208.169342,136.570480 206.978439,133.864777 
	C203.902679,126.876770 198.999924,120.905838 196.032410,113.885292 
	C194.673111,110.669449 192.499817,108.897797 188.634399,108.756561 
	C187.329803,107.836456 186.809753,106.783287 186.824066,105.616386 
	C186.901337,99.312759 183.634201,95.234924 178.050873,92.199387 
	C176.141800,87.866180 175.845230,82.983070 170.789215,80.570198 
	C168.631958,73.808723 169.754944,67.174652 169.587402,60.617626 
	C169.439728,54.837364 167.277023,50.782532 161.169266,48.958393 
	C158.948624,48.981979 157.537735,48.278755 156.356857,46.389153 
	C155.333282,44.906261 155.190948,43.726196 155.631134,42.337688 
	C158.091766,34.576321 157.353363,32.022495 151.245850,27.068596 
	C150.446747,26.420441 149.769897,25.785784 149.507126,24.376747 
	C148.122330,18.199680 145.589737,12.806610 143.787811,7.167255 
	C143.200607,5.329519 141.941910,3.546781 143.740173,1.299432 
z"/>
<path fill="#222222" opacity="1.000000" stroke="none" 
	d="
M67.754906,77.717316 
	C68.643936,80.085457 69.288567,82.177330 69.968643,84.636429 
	C70.109550,86.145370 70.478111,87.264084 70.155258,88.833054 
	C69.639053,89.796539 69.229637,90.370346 68.630508,90.647797 
	C59.968082,94.659454 57.819721,101.660866 58.311512,110.693558 
	C58.842907,120.453667 58.693035,130.279007 58.180664,140.483643 
	C58.038475,141.428894 57.891048,141.944641 57.468945,142.760834 
	C53.956913,145.390366 50.908047,147.795654 50.548485,152.336990 
	C50.119011,157.761398 52.101021,161.887039 56.427933,163.867828 
	C61.238480,166.070007 66.118050,164.946274 69.903305,161.020477 
	C71.503281,159.361099 71.899048,156.756943 74.576515,155.642700 
	C75.664543,155.487000 76.387985,155.290619 77.505356,155.456818 
	C78.702934,155.565247 79.670448,155.565872 80.168648,156.236557 
	C86.141724,164.277679 95.538696,167.230164 103.639709,172.103485 
	C104.344658,172.527557 105.066376,172.923019 105.989525,173.688965 
	C106.728508,176.440292 109.327896,176.786530 110.653709,178.371292 
	C115.749741,184.462616 119.385757,191.553680 123.924149,198.032547 
	C125.179504,199.824646 125.282677,201.754578 123.265656,203.719040 
	C103.979103,204.000000 84.958214,204.000000 65.468658,204.000000 
	C60.177513,201.575165 58.417007,196.735016 56.027725,192.447296 
	C46.489742,175.330811 37.411495,157.954102 29.240360,140.158035 
	C18.945782,117.737297 8.410457,95.375648 1.241544,71.287964 
	C1.000000,49.639343 1.218407,28.274847 0.842824,6.920796 
	C0.751608,1.734614 1.985477,-0.088567 7.502095,1.000000 
	C12.815532,3.702271 14.242151,8.509184 15.250875,13.353872 
	C15.827057,16.121157 16.298605,18.879791 17.296593,21.537504 
	C22.533056,35.482597 27.543543,49.493034 29.932756,64.285324 
	C30.277948,66.422523 31.382374,68.325417 32.849621,69.907936 
	C34.040867,71.192757 34.956100,72.471680 34.439274,74.689018 
	C33.295895,77.222359 31.090866,77.153664 29.241421,77.753876 
	C22.899603,79.812027 19.832674,84.319641 20.573830,90.493591 
	C21.172878,95.483765 25.244856,99.218422 30.353104,99.462761 
	C36.673382,99.765068 41.167191,96.444252 42.380177,89.967545 
	C43.062744,86.322983 44.907673,84.142952 48.024273,82.348976 
	C52.201969,79.944221 56.609310,77.963936 60.674210,75.369354 
	C62.139511,74.434059 63.610096,73.792023 65.665146,74.745377 
	C66.750641,75.613831 66.927048,76.651917 67.754906,77.717316 
z"/>
<path fill="#202020" opacity="1.000000" stroke="none" 
	d="
M1.000000,71.468658 
	C3.782267,72.651405 4.856820,75.536537 5.864601,78.289948 
	C14.030621,100.600800 23.397236,122.422882 33.649212,143.821686 
	C43.320915,164.009277 53.837967,183.796722 64.905411,203.662384 
	C45.044506,204.000000 25.086935,203.850525 5.135310,204.128296 
	C1.226267,204.182724 0.917322,202.955780 0.926004,199.652237 
	C1.037894,157.080841 1.000000,114.509026 1.000000,71.468658 
z"/>
<path fill="#282827" opacity="1.000000" stroke="none" 
	d="
M188.107758,107.772736 
	C193.615402,103.830719 193.656021,104.066986 197.084839,110.445969 
	C202.391891,120.319160 208.094681,129.979813 213.646210,139.721146 
	C214.241394,140.765549 215.186157,141.436691 216.667450,141.903214 
	C217.000000,161.378387 216.870544,180.758423 217.115173,200.133728 
	C217.161102,203.770859 216.100708,204.454132 212.907776,204.055420 
	C210.624603,203.770309 208.277145,204.000000 205.479187,204.000000 
	C203.582184,199.623856 200.468094,196.228455 197.917831,192.603622 
	C188.729767,179.544098 180.884613,165.641510 172.211365,152.263199 
	C169.532639,148.131302 168.603928,142.843704 162.351685,141.538132 
	C161.637924,138.507965 163.921188,137.534790 165.846756,136.350342 
	C168.393158,134.784012 170.838058,133.132812 172.100815,130.276382 
	C172.638779,129.059494 173.141388,127.697014 172.010956,126.600403 
	C170.840256,125.464752 169.588242,126.246971 168.377701,126.782059 
	C165.502396,128.053024 163.130707,131.043137 159.199295,129.168930 
	C159.027115,125.676086 157.991959,122.995178 154.882767,120.984421 
	C155.936966,115.827751 163.726562,111.003838 168.662750,113.202751 
	C176.364548,116.633636 181.697250,114.338310 186.366516,108.253929 
	C186.651886,107.882080 187.241058,107.815063 188.107758,107.772736 
z"/>
<path fill="#242423" opacity="1.000000" stroke="none" 
	d="
M33.037247,75.556595 
	C32.936008,74.654877 33.047386,74.027748 32.785961,73.684875 
	C25.974266,64.751259 25.006098,53.578850 22.186169,43.360119 
	C19.292271,32.873348 13.351744,23.397463 12.481191,12.236640 
	C12.200171,8.633885 9.689588,5.205039 8.099462,1.348319 
	C19.020895,1.000000 30.041788,1.000000 41.531342,1.000000 
	C45.016621,12.693541 49.117908,24.035564 53.187408,35.385818 
	C54.026558,37.726303 54.912277,40.032841 55.098553,42.965294 
	C55.722950,46.008148 53.577080,46.810650 52.012310,47.871696 
	C48.725883,50.100178 45.114109,51.794994 41.755699,53.913963 
	C39.797520,55.149464 37.718430,56.254791 36.248905,58.094776 
	C34.971390,59.694344 33.847843,61.642281 35.397530,63.478779 
	C36.849613,65.199615 38.416576,63.497089 39.835667,62.861809 
	C44.222565,60.897949 48.130806,58.034367 52.505470,56.049488 
	C54.268993,55.249340 56.018795,53.986229 58.330635,55.517731 
	C61.702518,57.248783 62.053982,60.324780 62.908401,63.517544 
	C63.373108,66.320107 61.683563,67.603462 59.971600,68.519341 
	C53.865219,71.786194 48.012131,75.545753 41.633556,78.280403 
	C38.293755,79.712242 35.197426,79.431671 33.037247,75.556595 
z"/>
<path fill="#2A2A26" opacity="1.000000" stroke="none" 
	d="
M143.531372,1.000000 
	C146.101410,6.605063 148.292328,12.179146 150.249313,17.834192 
	C150.831314,19.516043 150.756393,21.425228 150.979385,23.654255 
	C149.916458,26.123117 148.007355,25.803280 146.183472,25.866945 
	C140.938400,26.050032 137.386505,28.763054 135.668121,33.602417 
	C134.090820,38.044495 135.529831,42.084496 138.808701,45.124680 
	C141.518616,47.637310 142.458954,50.441822 142.441605,53.956047 
	C142.403870,61.603302 142.530121,69.252380 142.382690,76.898590 
	C142.322128,80.040466 142.193954,83.241180 139.369568,85.857224 
	C135.639145,82.931946 136.320953,78.734398 136.060898,74.902443 
	C135.534286,67.142754 135.360077,59.359852 134.953033,51.591106 
	C134.674210,46.269562 130.874802,43.994289 126.225166,42.102913 
	C125.740013,41.669727 125.414505,41.352871 125.455223,41.091068 
	C126.656570,33.367813 122.859230,28.706217 116.228706,25.607018 
	C114.949394,25.009050 113.807190,23.851450 113.756516,21.834118 
	C117.920792,19.362499 120.617020,22.866474 123.892914,24.010225 
	C124.949738,24.379202 125.948555,25.709194 127.054726,24.906399 
	C128.414230,23.919748 127.456108,22.501883 127.110405,21.249966 
	C125.302032,14.701210 121.529510,8.769200 121.004669,1.408531 
	C128.354248,1.000000 135.708496,1.000000 143.531372,1.000000 
z"/>
<path fill="#282824" opacity="1.000000" stroke="none" 
	d="
M123.449982,204.000000 
	C123.070763,200.684265 121.694618,197.761902 119.631775,195.462097 
	C114.158272,189.359833 111.176888,181.466553 105.096832,175.444534 
	C107.000336,172.058273 109.965546,171.664322 113.575882,172.445404 
	C120.759392,182.398682 127.496735,192.136414 131.918579,203.640656 
	C129.299988,204.000000 126.599968,204.000000 123.449982,204.000000 
z"/>
<path fill="#D4E212" opacity="1.000000" stroke="none" 
	d="
M32.592148,75.181007 
	C36.941738,77.436584 40.520424,76.923042 44.397766,74.509758 
	C50.263863,70.858643 56.454655,67.729202 62.750633,64.126808 
	C66.897087,61.692043 70.819481,59.541843 74.697990,57.315197 
	C78.178261,55.317177 81.665619,55.236958 85.122108,57.223743 
	C89.734116,59.874714 94.342316,62.539635 98.853378,65.356735 
	C103.079971,67.996185 102.361595,72.968979 103.918236,76.866684 
	C104.309998,77.847603 103.545105,78.335754 102.571777,78.403587 
	C101.907860,78.449860 101.117775,78.306313 100.602333,78.613640 
	C94.992706,81.958206 92.635231,79.942291 91.315987,73.944328 
	C90.485176,70.167030 80.458427,67.565559 76.279099,69.543770 
	C73.281982,70.962402 70.431999,72.691895 67.320862,74.548172 
	C67.766785,75.546005 67.617485,76.038109 66.400063,75.796913 
	C59.866314,78.744652 53.671783,82.306961 47.321041,85.564751 
	C44.850052,86.832314 45.038441,88.867210 44.653713,90.959480 
	C43.628059,96.537224 39.258148,100.839386 33.745789,101.912949 
	C28.073956,103.017563 22.516806,100.506264 19.439817,95.448021 
	C14.225404,86.876083 20.860933,76.341629 32.592148,75.181007 
z"/>
<path fill="#D4E212" opacity="1.000000" stroke="none" 
	d="
M127.229744,57.644638 
	C127.052620,62.329762 126.568115,66.718437 127.123039,70.971489 
	C127.981361,77.549911 124.263710,81.543144 120.179543,85.568718 
	C119.083878,86.648666 118.134628,87.385353 117.191284,85.478195 
	C117.117584,85.329201 117.042809,85.175232 116.939178,85.047363 
	C114.213661,81.684631 113.909729,77.417244 116.107147,73.300232 
	C117.630974,70.445221 115.528519,61.077259 112.379250,59.154785 
	C102.450661,53.093861 92.330429,47.347134 82.294380,41.461708 
	C80.565407,40.447792 79.163956,41.357250 77.606567,41.986984 
	C70.685234,44.785629 61.748825,41.536022 59.310474,35.417034 
	C56.657192,28.758675 60.691265,19.605564 67.246460,17.410673 
	C75.461220,14.660106 83.227203,18.407883 85.223366,26.622435 
	C86.018311,29.893776 87.586632,31.648987 90.360809,33.215050 
	C101.356827,39.422466 112.227646,45.851662 123.473518,52.332726 
	C126.915710,52.646740 127.644852,54.600407 127.229744,57.644638 
z"/>
<path fill="#D4E212" opacity="1.000000" stroke="none" 
	d="
M188.526443,107.392944 
	C186.403290,114.147972 181.017822,116.180573 175.386230,117.898491 
	C173.485519,118.478302 172.195953,117.052032 170.940781,116.225716 
	C167.601791,114.027565 164.649094,114.167686 161.462265,116.493698 
	C159.466660,117.950249 157.173782,118.999496 154.790314,120.509888 
	C147.187714,123.911133 140.625778,128.506317 133.766602,132.540497 
	C129.194794,135.229385 125.122635,135.410034 120.736092,132.551193 
	C117.952774,130.737228 115.229347,128.616821 112.163940,127.494713 
	C105.702866,125.129593 104.772812,119.490051 103.282547,114.054909 
	C102.924583,112.749397 103.026558,111.762772 104.788635,111.802010 
	C107.713097,111.867126 110.332397,109.131760 112.646278,109.539574 
	C115.321045,110.011002 114.424026,114.092247 115.629715,116.392242 
	C117.829308,120.588188 127.525490,123.073143 132.093094,120.481010 
	C140.913040,115.475670 149.702164,110.415955 158.749542,105.130051 
	C160.720383,102.633614 161.725052,100.081284 162.404541,97.340569 
	C164.276657,89.789337 171.221664,86.719711 178.670807,90.495621 
	C187.276840,94.749680 189.597763,98.681252 188.526443,107.392944 
z"/>
<path fill="#D4E212" opacity="1.000000" stroke="none" 
	d="
M82.010696,109.050499 
	C85.774490,105.952522 88.884735,100.746994 93.153801,108.213463 
	C93.733154,109.226746 95.272743,109.691010 96.498657,110.495384 
	C95.621117,111.512688 94.887367,112.408180 94.106918,113.260925 
	C88.215820,119.697777 89.590485,128.864380 97.137497,133.290009 
	C105.745827,138.337997 114.394257,143.318466 122.959366,148.438522 
	C124.808090,149.543655 126.277634,149.799377 128.461441,149.045914 
	C135.980423,146.451691 143.931732,150.731323 145.797119,158.030090 
	C147.725983,165.577271 143.042709,173.006119 135.336334,174.623550 
	C128.135666,176.134842 120.853806,171.156219 119.768112,163.487869 
	C119.293129,160.133057 118.044830,158.157074 114.973167,156.726151 
	C111.531128,155.122665 108.375595,152.904144 104.765923,150.877563 
	C94.500595,149.309723 86.668747,143.960907 79.703354,137.133759 
	C78.257103,135.716217 77.776894,133.656265 77.697151,131.597961 
	C77.477707,125.933739 77.420746,120.266090 77.724609,114.606300 
	C77.862083,112.045593 78.316925,109.523041 82.010696,109.050499 
z"/>
<path fill="#D4E212" opacity="1.000000" stroke="none" 
	d="
M55.600712,141.264099 
	C55.860962,129.380310 56.508823,117.721962 55.982704,106.116844 
	C55.612354,97.947754 58.544899,92.744621 65.842171,89.631569 
	C66.751091,89.243813 67.574394,88.655334 68.711609,87.935211 
	C69.655739,86.958015 70.247002,86.061157 71.730789,86.170067 
	C77.768448,82.106308 83.356308,84.529831 89.044006,86.322624 
	C88.329117,88.234802 87.029343,89.992401 87.180252,91.615089 
	C87.736389,97.595039 84.627060,96.989662 80.793037,95.626236 
	C79.030952,94.999619 77.246483,94.649979 75.319664,96.272614 
	C75.382263,98.324730 74.842918,99.811882 73.602417,101.102158 
	C70.244850,104.594444 69.474182,108.947464 69.465225,113.562912 
	C69.452621,120.056465 69.542526,126.551643 69.427963,133.042908 
	C69.356728,137.079361 70.467590,140.462845 73.228622,143.508469 
	C76.617302,147.246445 77.922554,151.571960 75.151566,156.710785 
	C70.179832,166.161255 63.638687,169.234909 55.863880,166.439407 
	C50.509342,164.514145 48.793755,160.318756 48.251865,155.471237 
	C47.635799,149.960144 49.001415,145.029099 54.696781,141.945007 
	C55.168602,141.689529 55.327652,141.600906 55.600712,141.264099 
z"/>
<path fill="#D4E212" opacity="1.000000" stroke="none" 
	d="
M138.983032,86.353226 
	C140.454041,74.112114 139.342987,62.173836 139.666183,50.263008 
	C139.701981,48.944225 138.875336,48.245930 138.034927,47.390850 
	C132.619781,41.881088 131.397873,36.406406 134.229004,30.888624 
	C137.281937,24.938553 142.182800,22.841991 150.594849,24.064434 
	C159.750381,29.570822 161.505096,35.284386 157.105957,44.653679 
	C151.793716,55.113731 153.845825,66.058372 153.389191,76.712219 
	C153.301514,78.757835 152.887634,80.666954 151.342194,82.662979 
	C151.019287,85.373589 150.971161,87.743858 150.974030,90.556366 
	C151.839386,92.574760 150.954071,93.590622 149.611359,94.777817 
	C144.223419,99.917519 137.863739,102.969215 131.604385,105.947098 
	C127.529266,107.885818 123.230629,105.213394 119.080925,104.290413 
	C118.412292,104.141693 117.918663,103.667267 118.306236,102.846939 
	C118.447830,102.547249 118.727531,102.277229 118.767815,101.970512 
	C119.536186,96.119812 120.706474,92.237343 128.677902,94.648804 
	C133.145187,96.000214 136.334137,90.507347 138.983032,86.353226 
z"/>
<path fill="#282824" opacity="1.000000" stroke="none" 
	d="
M75.316742,156.973572 
	C75.139503,151.203033 73.854805,146.068970 68.610565,142.751282 
	C67.037697,141.756226 67.060608,140.391708 67.074562,138.884247 
	C67.169853,128.587891 67.463844,118.287071 67.253990,107.996651 
	C67.139137,102.364761 71.115265,99.933281 74.764999,96.704681 
	C78.827240,99.591507 79.794014,104.338341 82.269760,108.669952 
	C79.126411,112.660973 80.624435,117.208984 79.903175,121.341179 
	C77.889435,132.878281 82.878891,139.833939 93.268364,144.066177 
	C97.054504,145.608505 100.429848,148.159271 104.214531,150.525909 
	C103.260544,152.101440 103.856224,153.244827 104.777328,154.328140 
	C106.746117,156.643661 107.114006,159.389816 106.962738,162.703522 
	C104.789902,164.875534 102.847832,163.662079 100.991814,162.566208 
	C96.553780,159.945801 92.052094,157.416534 87.750862,154.584915 
	C84.127106,152.199295 81.337708,152.345718 78.905487,156.558685 
	C77.676796,156.825027 76.733147,156.890976 75.316742,156.973572 
z"/>
<path fill="#2B2C26" opacity="1.000000" stroke="none" 
	d="
M151.395447,82.936020 
	C150.297821,72.577461 150.955414,62.145473 150.899231,51.716709 
	C150.878204,47.815212 155.059341,47.864609 156.718689,45.168770 
	C158.141220,45.617386 159.257172,46.227299 160.681793,46.917042 
	C162.867889,48.447777 163.432129,50.447788 163.390381,52.707798 
	C163.234573,61.138412 164.047897,69.588593 162.768173,77.999382 
	C162.449875,80.091385 161.961899,82.585350 164.295898,83.808571 
	C166.532990,84.980988 167.905243,82.949989 169.318497,81.615227 
	C170.041000,80.932861 170.654480,80.128532 172.116486,80.010132 
	C177.826324,81.265816 178.492859,85.572464 178.998352,90.374191 
	C169.296677,90.084190 165.776978,92.291946 162.416367,101.522430 
	C161.852921,103.070007 161.009460,104.016472 159.339813,104.808960 
	C162.786362,97.672470 159.681152,91.392517 156.448502,85.058105 
	C155.355042,82.915489 153.978729,82.134949 151.395447,82.936020 
z"/>
<path fill="#D4E212" opacity="1.000000" stroke="none" 
	d="
M78.743240,157.066757 
	C78.536133,155.444458 78.249557,154.105331 78.405266,152.819794 
	C78.880989,148.892212 81.157150,147.832397 84.647682,149.911957 
	C91.880180,154.220901 99.071098,158.599640 106.617783,163.037262 
	C109.360832,164.723770 111.713379,166.408768 114.184265,167.897324 
	C116.631989,169.371918 116.546227,170.698959 114.076027,172.442780 
	C111.320938,173.916626 108.847931,175.482880 105.398132,175.073883 
	C97.245506,172.037704 90.340393,167.418076 83.243736,163.147629 
	C81.021751,161.810532 79.481293,159.938751 78.743240,157.066757 
z"/>
<path fill="#D5E411" opacity="1.000000" stroke="none" 
	d="
M58.782486,55.505707 
	C51.261471,59.643574 43.895058,63.385887 36.687096,67.411896 
	C32.989441,69.477219 31.847509,68.676010 31.741447,64.526627 
	C31.623848,59.925789 33.098869,56.412460 37.055801,54.070480 
	C42.891209,50.616699 48.770096,47.236385 54.881721,43.605797 
	C59.078327,41.655712 62.823936,42.143494 66.367233,44.465160 
	C69.661644,46.623745 69.704720,49.277340 66.376831,51.297867 
	C63.999741,52.741119 61.466351,53.926949 58.782486,55.505707 
z"/>
<path fill="#D5E411" opacity="1.000000" stroke="none" 
	d="
M158.762085,129.140793 
	C163.998932,126.351036 169.002350,123.819290 174.031494,121.274529 
	C176.738541,128.923721 175.396851,133.071564 168.939941,137.188553 
	C166.844101,138.524887 164.655350,139.715469 162.219604,141.201187 
	C158.601654,143.237106 155.266968,145.033188 151.947113,146.856323 
	C149.985687,147.933487 147.854843,148.472778 145.745071,147.801575 
	C142.984894,146.923447 139.614395,146.404877 138.953964,142.868591 
	C138.264420,139.176544 141.859055,138.974091 143.936935,137.727310 
	C148.738052,134.846512 153.657303,132.162598 158.762085,129.140793 
z"/>
<path fill="#D5E411" opacity="1.000000" stroke="none" 
	d="
M113.484467,21.373104 
	C117.302979,23.662096 120.895866,25.661188 124.225273,28.030533 
	C128.733109,31.238495 129.514725,36.877434 126.125946,41.642960 
	C121.128632,41.174576 117.756729,37.696869 113.731140,35.505058 
	C106.623894,31.635391 99.803276,27.242350 92.812935,23.153423 
	C90.001343,21.508816 89.879707,20.204712 92.626747,18.232353 
	C96.520790,15.436457 100.582596,15.074842 104.808861,16.864588 
	C107.688713,18.084154 110.370888,19.770519 113.484467,21.373104 
z"/>
<path fill="#D5E411" opacity="1.000000" stroke="none" 
	d="
M93.660202,89.894913 
	C99.705437,83.262268 101.581322,82.700531 108.489304,85.211121 
	C112.167953,86.548058 115.434769,92.730553 114.795189,97.145103 
	C114.261276,100.830353 107.838226,106.958885 104.489449,106.978287 
	C95.843109,107.028374 90.264198,98.558533 93.660202,89.894913 
z"/>
<path fill="#2A2A26" opacity="1.000000" stroke="none" 
	d="
M127.350616,57.844677 
	C125.997261,56.393337 125.804176,54.270679 123.977097,52.733162 
	C128.039154,52.004425 129.199799,53.587437 127.350616,57.844677 
z"/>
<path fill="#2B2C26" opacity="1.000000" stroke="none" 
	d="
M149.667221,94.965927 
	C149.821655,93.862648 150.279099,92.706833 150.880783,91.274811 
	C153.872070,93.165375 151.843994,94.018593 149.667221,94.965927 
z"/>
<path fill="#282824" opacity="1.000000" stroke="none" 
	d="
M71.731056,85.866730 
	C71.171761,86.519615 70.365952,87.048630 69.272995,87.644104 
	C69.209785,86.966827 69.433708,86.223091 69.830856,85.241501 
	C70.497566,85.250053 70.991051,85.496460 71.731056,85.866730 
z"/>
<path fill="#282824" opacity="1.000000" stroke="none" 
	d="
M66.189148,75.644592 
	C66.262459,75.064438 66.466942,74.913002 66.931046,74.831696 
	C67.335869,75.516029 67.546387,76.218414 67.878098,77.457199 
	C67.144638,77.561401 66.489754,76.955711 66.189148,75.644592 
z"/>
<path fill="#D5E411" opacity="1.000000" stroke="none" 
	d="
M172.423813,79.535675 
	C171.424164,82.955162 170.121887,85.761368 167.186417,87.340073 
	C165.614243,88.185585 164.035614,89.355232 162.099335,88.337723 
	C159.936172,87.201012 160.100204,85.203339 160.151672,83.162201 
	C160.447784,71.420105 160.681107,59.676426 160.963074,47.465080 
	C167.370483,47.197327 171.766296,50.969288 172.072067,57.190125 
	C172.429901,64.470947 172.284653,71.776489 172.423813,79.535675 
z"/>
<path fill="#D4E212" opacity="1.000000" stroke="none" 
	d="
M46.879150,115.690079 
	C45.781460,122.953209 46.459644,129.953613 45.935234,136.893768 
	C45.767872,139.108643 47.447891,143.091782 44.256130,143.196060 
	C41.075375,143.299973 36.969162,141.995026 35.707611,137.887451 
	C34.984230,135.532150 34.450371,133.018112 34.423000,130.568924 
	C34.348831,123.932442 34.480358,117.287895 34.752663,110.655670 
	C34.894478,107.201675 36.225056,104.375183 39.798977,102.852219 
	C41.699516,102.042336 43.449112,101.025612 45.387608,102.168396 
	C47.267998,103.276924 46.946804,105.282425 46.877895,107.108955 
	C46.827866,108.435135 46.799740,109.762138 46.837067,111.530617 
	C47.002499,113.099480 47.024837,114.226730 46.879150,115.690079 
z"/>
<path fill="#292A23" opacity="1.000000" stroke="none" 
	d="
M47.026436,115.820709 
	C46.757984,114.882408 46.681335,113.739044 46.758484,112.284073 
	C47.833736,113.118034 48.157440,114.313820 47.026436,115.820709 
z"/>
<path fill="#292A23" opacity="1.000000" stroke="none" 
	d="
M55.579666,141.125916 
	C55.904316,141.361954 55.823757,141.625366 55.241295,141.792145 
	C55.131264,141.578690 55.276287,141.397949 55.579666,141.125916 
z"/>
<path fill="#262724" opacity="1.000000" stroke="none" 
	d="
M23.500088,92.072952 
	C22.390291,88.278564 22.862713,85.108368 25.403257,82.509666 
	C28.692856,79.144760 34.018448,79.190399 37.463230,82.489212 
	C40.887211,85.768105 41.050808,90.953255 37.843479,94.541267 
	C34.872475,97.864914 29.172756,98.200577 25.795370,95.159737 
	C24.953991,94.402199 24.379433,93.348305 23.500088,92.072952 
z"/>
<path fill="#2B2C26" opacity="1.000000" stroke="none" 
	d="
M81.038071,30.757841 
	C79.034996,36.697159 75.985077,38.989216 71.383011,38.320385 
	C67.078148,37.694748 64.520851,35.160328 63.910370,30.902792 
	C63.214710,26.051233 66.758751,21.756556 71.701843,21.181723 
	C76.698036,20.600718 80.350243,24.176004 81.038071,30.757841 
z"/>
<path fill="#2B2C26" opacity="1.000000" stroke="none" 
	d="
M166.935425,104.750198 
	C167.648956,98.016136 171.584274,94.386574 176.788651,95.241257 
	C181.654785,96.040405 184.802521,100.440994 183.961243,105.395424 
	C183.217270,109.776596 180.286026,112.145256 176.123749,112.430824 
	C171.134125,112.773163 168.086609,110.008568 166.935425,104.750198 
z"/>
<path fill="#2B2C26" opacity="1.000000" stroke="none" 
	d="
M139.843964,156.468155 
	C142.481491,163.086853 140.608215,168.313095 135.402817,169.778656 
	C130.433762,171.177689 125.526375,168.341354 124.368156,163.286011 
	C123.437950,159.225845 125.019501,156.023010 128.500656,154.054703 
	C132.629990,151.719925 136.450150,152.598373 139.843964,156.468155 
z"/>
<path fill="#292A23" opacity="1.000000" stroke="none" 
	d="
M62.610588,162.466705 
	C54.245747,161.498260 50.413651,155.489655 54.086224,149.582443 
	C56.187702,146.202271 59.237911,144.433289 63.348083,145.473038 
	C67.533867,146.531921 69.874023,149.310120 70.058105,153.617950 
	C70.267624,158.521194 67.557259,161.257462 62.610588,162.466705 
z"/>
<path fill="#2B2C26" opacity="1.000000" stroke="none" 
	d="
M146.820953,28.141392 
	C153.125549,30.262800 155.943436,34.523991 154.525696,39.240753 
	C153.096573,43.995419 148.434448,46.476223 143.501434,44.980785 
	C139.535416,43.778488 137.562164,40.882004 137.501083,36.846939 
	C137.427643,31.994490 140.278427,29.323582 146.820953,28.141392 
z"/>
</svg>